<svg xmlns="http://www.w3.org/2000/svg" style="display: none;">
  
    <symbol id="icon-pfeil-links" viewBox="0 0 512 512">
      <path d="m269 434l-125-171 125-170 19 14-114 156 114 157z"/>
    </symbol>
  
    <symbol id="icon-arrow-down" viewBox="0 0 512 512">
      <path d="m320 224l0-128-128 0 0 128-96 0 160 192 160-192z"/>
    </symbol>
  
    <symbol id="icon-home" viewBox="0 0 512 512">
      <path d="m428 194l-167-129c-4-4-11-4-16 0l-161 129c-3 2-5 6-5 10l0 233c0 7 6 13 13 13l96 0c7 0 13-6 13-13l0-143l110 0l0 143c0 7 6 13 13 13l96 0c7 0 13-6 13-13l0-233c0-4-2-8-5-10z"/>
    </symbol>
  
    <symbol id="icon-pfeil-rechts" viewBox="0 0 512 512">
      <path d="m248 434l-19-14 114-157-114-156 19-14 125 170z"/>
    </symbol>
  
    <symbol id="icon-playback-play" viewBox="0 0 512 512">
      <path d="m128 96l256 160-256 160z"/>
    </symbol>
  
    <symbol id="icon-primitive-square" viewBox="0 0 512 512">
      <path d="m384 384l-256 0 0-256 256 0z"/>
    </symbol>
  
    <symbol id="icon-triangle-right" viewBox="0 0 512 512">
      <path d="m160 64l192 192-192 192z"/>
    </symbol>
  
    <symbol id="icon-triangle-left" viewBox="0 0 512 512">
      <path d="m160 256l192 192 0-384z"/>
    </symbol>
  
    <symbol id="icon-triangle-up" viewBox="0 0 512 512">
      <path d="m256 128l-192 192 384 0z"/>
    </symbol>
  
    <symbol id="icon-triangle-down" viewBox="0 0 512 512">
      <path d="m64 192l192 192 192-192z"/>
    </symbol>
  
    <symbol id="icon-trashcan" viewBox="0 0 512 512">
      <path d="m416 64l-128 0c0 0 0-12 0-16 0-9-7-16-16-16-9 0-16 7-16 16 0 9 0 16 0 16l-128 0c-18 0-32 14-32 32l0 32c0 18 14 32 32 32l0 288c0 18 14 32 32 32l224 0c18 0 32-14 32-32l0-288c18 0 32-14 32-32l0-32c0-18-14-32-32-32z m-32 368c0 9-7 16-16 16l-192 0c-9 0-16-7-16-16l0-272 32 0 0 240c0 9 7 16 16 16 9 0 16-7 16-16l0-240 32 0 0 240c0 9 7 16 16 16 9 0 16-7 16-16l0-240 32 0 0 240c0 9 7 16 16 16 9 0 16-7 16-16l0-240 32 0z m32-312c0 4-4 8-8 8l-272 0c-4 0-8-4-8-8l0-16c0-4 4-8 8-8l272 0c4 0 8 4 8 8z"/>
    </symbol>
  
    <symbol id="icon-tools" viewBox="0 0 512 512">
      <path d="m143 233c9 8 41 42 41 42l18-18-28-30 54-57c0 0-24-24-14-14 11-38 1-81-28-110-28-30-69-40-105-30l62 64-17 63-60 17-62-64c-10 38-1 79 28 109 30 31 73 40 111 28z m206 62l-74 73 123 128c10 10 23 15 36 15 13 0 27-5 37-15 20-21 20-55 0-76z m163-214l-78-81-231 239 28 29-138 143-32 16-44 73 11 12 70-46 17-33 138-143 28 30z"/>
    </symbol>
  
    <symbol id="icon-three-bars" viewBox="0 0 512 512">
      <path d="m64 96l0 64 384 0 0-64z m0 192l384 0 0-64-384 0z m0 128l384 0 0-64-384 0z"/>
    </symbol>
  
    <symbol id="icon-sync" viewBox="0 0 512 512">
      <path d="m392 237c6 41-7 84-39 115-47 47-119 52-173 17l38-36-138-19 19 134 42-40c76 55 183 50 251-18 40-39 58-91 56-142z m-233-77c47-46 119-52 173-17l-38 36 138 19-19-134-42 40c-76-55-183-50-251 18-40 39-58 91-56 142l56 11c-6-41 7-84 39-115z"/>
    </symbol>
  
    <symbol id="icon-pencil" viewBox="0 0 512 512">
      <path d="m384 32l-64 64 96 96 64-64z m-352 352l0 96 96 0 256-256-96-96z m96 64l-64 0 0-64 32 0 0 32 32 0z"/>
    </symbol>
  
    <symbol id="icon-info" viewBox="0 0 512 512">
      <path d="m256 192c18 0 32-14 32-32 0-17-14-32-32-32-17 0-32 15-32 32 0 18 15 32 32 32z m0-160c-123 0-224 101-224 224 0 124 101 224 224 224 124 0 224-100 224-224 0-123-100-224-224-224z m0 384c-88 0-160-71-160-160 0-88 72-160 160-160 89 0 160 72 160 160 0 89-71 160-160 160z m32-160c0-16-16-32-32-32-16 0-16 0-32 0-16 0-32 16-32 32l32 0c0 16 0 80 0 96 0 16 16 32 32 32 16 0 16 0 32 0 16 0 32-16 32-32l-32 0c0-16 0-80 0-96z"/>
    </symbol>
  
    <symbol id="icon-gist" viewBox="0 0 512 512">
      <path d="m272 192l48 48-48 48 32 32 80-80-80-80z m-208-160l0 416 384 0 0-416z m352 384l-320 0 0-352 320 0z m-176-128l-48-48 48-48-32-32-80 80 80 80z"/>
    </symbol>
  
    <symbol id="icon-heart" viewBox="0 0 512 512">
      <path d="m256 432c200-157 192-212 192-256 0-43-36-96-96-96-60 0-96 64-96 64 0 0-36-64-96-64-60 0-96 53-96 96 0 44-7 99 192 256z"/>
    </symbol>
  
    <symbol id="icon-gear" viewBox="0 0 512 512">
      <path d="m256 175c-45 0-81 36-81 81 0 45 36 81 81 81 45 0 81-36 81-81 0-45-36-81-81-81z m162 128l-14 35 26 51 3 7-36 36-59-28-35 14-18 55-2 7-51 0-22-62-36-14-51 26-7 3-36-36 28-59-14-35-55-18-7-2 0-51 62-22 14-36-26-51-3-7 36-36 59 28 35-14 18-55 2-7 51 0 22 62 36 14 51-26 7-3 36 36-28 59 14 35 55 18 7 2 0 51z"/>
    </symbol>
  
    <symbol id="icon-cloud-upload" viewBox="0 0 512 512">
      <path d="m256 192l-96 96 64 0 0 160 64 0 0-160 64 0z m160-32c-4 0-9 1-13 1-24-57-81-97-147-97-66 0-123 40-147 97-4 0-9-1-13-1-53 0-96 43-96 96 0 53 43 96 96 96 10 0 20-2 29-5 17 19 41 31 67 35l0-32c-25-6-46-22-56-44-11 9-25 14-40 14-35 0-64-29-64-64 0-35 29-64 64-64 13 0 24 4 34 10 11-60 63-106 126-106 63 0 115 46 125 106 10-6 22-10 35-10 35 0 64 29 64 64 0 35-29 64-64 64-5 0-10-1-15-2-14 21-38 34-65 34-6 0-11-1-16-2l0 32c5 1 11 2 16 2 31 0 58-12 79-32 0 0 0 0 1 0 53 0 96-43 96-96 0-53-43-96-96-96z"/>
    </symbol>
  
    <symbol id="icon-circle-slash" viewBox="0 0 512 512">
      <path d="m256 96c-88 0-160 72-160 160 0 88 72 160 160 160 88 0 160-72 160-160 0-88-72-160-160-160z m0 64c14 0 27 3 39 8l-127 127c-5-12-8-25-8-39 0-53 43-96 96-96z m0 192c-14 0-27-3-39-9l127-126c5 12 8 25 8 39 0 53-43 96-96 96z"/>
    </symbol>
  
    <symbol id="icon-x" viewBox="0 0 512 512">
      <path d="m416 160l-64-64-96 96-96-96-64 64 96 96-96 96 64 64 96-96 96 96 64-64-96-96z"/>
    </symbol>
  
    <symbol id="icon-light-bulb" viewBox="0 0 512 512">
      <path d="m256 32c-88 0-160 72-160 160 0 52 25 99 64 128l0 96c0 18 14 32 32 32 0 18 14 32 32 32l64 0c18 0 32-14 32-32 18 0 32-14 32-32l0-96c39-29 64-76 64-128 0-88-72-160-160-160z m64 368c0 9-7 16-16 16l-96 0c-9 0-16-7-16-16l0-16 128 0z m32-123c-17 16-32 21-32 62l0 13-32 0 0-64 64-64 0-32-32-32-32 32-32-32-32 32-32-32-32 32 0 32 64 64 0 64-32 0 0-13c0-41-15-46-32-62-20-23-32-53-32-85 0-71 57-128 128-128 71 0 128 57 128 128 0 32-12 62-32 85z m-96 11l-64-64 0-32 32 32 32-32 32 32 32-32 0 32z"/>
    </symbol>
  
    <symbol id="icon-comment" viewBox="0 0 512 512">
      <path d="m416 64l-320 0c-31 0-64 32-64 64l0 192c0 64 64 64 64 64l32 0 0 128 128-128c0 0 129 0 160 0 31 0 64-34 64-64l0-192c0-31-32-64-64-64z"/>
    </symbol>
  
    <symbol id="icon-mention" viewBox="0 0 512 512">
      <path d="m281 50c-114-14-217 67-231 181-14 114 67 217 181 231 35 5 72 0 106-15l0 0c13-5 18-19 13-31-5-12-19-18-31-13l0 0c-27 11-55 15-82 12-88-11-151-91-140-178 11-88 91-151 179-140 87 11 150 91 139 179-2 17-11 27-31 27-21 0-32-23-32-40l0-63c0-13-11-24-24-24-5 0-9 1-13 4-13-10-29-17-47-19-53-7-101 31-107 83-7 53 31 101 83 107 29 4 58-7 79-26 13 14 30 24 50 26 44 5 84-26 89-70 14-114-67-217-181-231z m23 212c-4 26-28 45-54 42-26-4-45-28-42-54 4-26 28-45 54-42 26 4 45 28 42 54z"/>
    </symbol>
  
</svg>
